<mxfile host="app.diagrams.net" modified="2023-06-19T00:30:21.883Z" agent="Mozilla/5.0 (Windows NT 10.0; Win64; x64) AppleWebKit/537.36 (KHTML, like Gecko) Chrome/114.0.0.0 Safari/537.36" etag="tjntci9ZQt1gh6MLCcSn" version="21.4.0" type="device">
  <diagram name="페이지-1" id="axt3QVBXmXIZcMGO90aI">
    <mxGraphModel dx="1647" dy="895" grid="1" gridSize="10" guides="1" tooltips="1" connect="1" arrows="1" fold="1" page="1" pageScale="1" pageWidth="4681" pageHeight="3300" math="0" shadow="0">
      <root>
        <mxCell id="0" />
        <mxCell id="1" parent="0" />
        <mxCell id="ln-KKI3XszUrnPwqGnD0-7" style="edgeStyle=orthogonalEdgeStyle;rounded=0;orthogonalLoop=1;jettySize=auto;html=1;" parent="1" source="ln-KKI3XszUrnPwqGnD0-1" target="ln-KKI3XszUrnPwqGnD0-2" edge="1">
          <mxGeometry relative="1" as="geometry" />
        </mxCell>
        <mxCell id="ln-KKI3XszUrnPwqGnD0-8" style="edgeStyle=orthogonalEdgeStyle;rounded=0;orthogonalLoop=1;jettySize=auto;html=1;" parent="1" source="ln-KKI3XszUrnPwqGnD0-1" target="ln-KKI3XszUrnPwqGnD0-3" edge="1">
          <mxGeometry relative="1" as="geometry" />
        </mxCell>
        <mxCell id="ln-KKI3XszUrnPwqGnD0-10" style="edgeStyle=orthogonalEdgeStyle;rounded=0;orthogonalLoop=1;jettySize=auto;html=1;entryX=0.5;entryY=0;entryDx=0;entryDy=0;" parent="1" source="ln-KKI3XszUrnPwqGnD0-1" target="ln-KKI3XszUrnPwqGnD0-6" edge="1">
          <mxGeometry relative="1" as="geometry" />
        </mxCell>
        <mxCell id="ln-KKI3XszUrnPwqGnD0-11" style="edgeStyle=orthogonalEdgeStyle;rounded=0;orthogonalLoop=1;jettySize=auto;html=1;" parent="1" source="ln-KKI3XszUrnPwqGnD0-1" target="ln-KKI3XszUrnPwqGnD0-4" edge="1">
          <mxGeometry relative="1" as="geometry" />
        </mxCell>
        <mxCell id="ln-KKI3XszUrnPwqGnD0-12" style="edgeStyle=orthogonalEdgeStyle;rounded=0;orthogonalLoop=1;jettySize=auto;html=1;entryX=0.5;entryY=0;entryDx=0;entryDy=0;" parent="1" source="ln-KKI3XszUrnPwqGnD0-1" target="ln-KKI3XszUrnPwqGnD0-5" edge="1">
          <mxGeometry relative="1" as="geometry" />
        </mxCell>
        <mxCell id="ln-KKI3XszUrnPwqGnD0-1" value="상품정보" style="whiteSpace=wrap;html=1;align=center;fillColor=#f8cecc;strokeColor=#b85450;" parent="1" vertex="1">
          <mxGeometry x="580" y="590" width="100" height="40" as="geometry" />
        </mxCell>
        <mxCell id="ln-KKI3XszUrnPwqGnD0-2" value="상품코드" style="ellipse;whiteSpace=wrap;html=1;align=center;fontStyle=4;fillColor=#dae8fc;strokeColor=#6c8ebf;" parent="1" vertex="1">
          <mxGeometry x="360" y="700" width="100" height="40" as="geometry" />
        </mxCell>
        <mxCell id="ln-KKI3XszUrnPwqGnD0-3" value="상품명" style="ellipse;whiteSpace=wrap;html=1;align=center;fillColor=#f5f5f5;fontColor=#333333;strokeColor=#666666;" parent="1" vertex="1">
          <mxGeometry x="470" y="700" width="100" height="40" as="geometry" />
        </mxCell>
        <mxCell id="ln-KKI3XszUrnPwqGnD0-4" value="매입단가" style="ellipse;whiteSpace=wrap;html=1;align=center;fillColor=#f5f5f5;fontColor=#333333;strokeColor=#666666;" parent="1" vertex="1">
          <mxGeometry x="690" y="700" width="100" height="40" as="geometry" />
        </mxCell>
        <mxCell id="ln-KKI3XszUrnPwqGnD0-5" value="매출단가" style="ellipse;whiteSpace=wrap;html=1;align=center;fillColor=#f5f5f5;fontColor=#333333;strokeColor=#666666;" parent="1" vertex="1">
          <mxGeometry x="800" y="700" width="100" height="40" as="geometry" />
        </mxCell>
        <mxCell id="ln-KKI3XszUrnPwqGnD0-6" value="품목" style="ellipse;whiteSpace=wrap;html=1;align=center;fillColor=#f5f5f5;fontColor=#333333;strokeColor=#666666;" parent="1" vertex="1">
          <mxGeometry x="580" y="700" width="100" height="40" as="geometry" />
        </mxCell>
        <mxCell id="ln-KKI3XszUrnPwqGnD0-13" style="edgeStyle=orthogonalEdgeStyle;rounded=0;orthogonalLoop=1;jettySize=auto;html=1;" parent="1" source="ln-KKI3XszUrnPwqGnD0-18" target="ln-KKI3XszUrnPwqGnD0-19" edge="1">
          <mxGeometry relative="1" as="geometry" />
        </mxCell>
        <mxCell id="ln-KKI3XszUrnPwqGnD0-14" style="edgeStyle=orthogonalEdgeStyle;rounded=0;orthogonalLoop=1;jettySize=auto;html=1;" parent="1" source="ln-KKI3XszUrnPwqGnD0-18" target="ln-KKI3XszUrnPwqGnD0-20" edge="1">
          <mxGeometry relative="1" as="geometry" />
        </mxCell>
        <mxCell id="ln-KKI3XszUrnPwqGnD0-15" style="edgeStyle=orthogonalEdgeStyle;rounded=0;orthogonalLoop=1;jettySize=auto;html=1;entryX=0.5;entryY=0;entryDx=0;entryDy=0;" parent="1" source="ln-KKI3XszUrnPwqGnD0-18" target="ln-KKI3XszUrnPwqGnD0-23" edge="1">
          <mxGeometry relative="1" as="geometry" />
        </mxCell>
        <mxCell id="ln-KKI3XszUrnPwqGnD0-16" style="edgeStyle=orthogonalEdgeStyle;rounded=0;orthogonalLoop=1;jettySize=auto;html=1;" parent="1" source="ln-KKI3XszUrnPwqGnD0-18" target="ln-KKI3XszUrnPwqGnD0-21" edge="1">
          <mxGeometry relative="1" as="geometry" />
        </mxCell>
        <mxCell id="ln-KKI3XszUrnPwqGnD0-18" value="고객정보" style="whiteSpace=wrap;html=1;align=center;fillColor=#f8cecc;strokeColor=#b85450;" parent="1" vertex="1">
          <mxGeometry x="1190" y="590" width="100" height="40" as="geometry" />
        </mxCell>
        <mxCell id="ln-KKI3XszUrnPwqGnD0-19" value="고객ID" style="ellipse;whiteSpace=wrap;html=1;align=center;fontStyle=4;fillColor=#dae8fc;strokeColor=#6c8ebf;" parent="1" vertex="1">
          <mxGeometry x="1025" y="700" width="100" height="40" as="geometry" />
        </mxCell>
        <mxCell id="ln-KKI3XszUrnPwqGnD0-20" value="고객이름" style="ellipse;whiteSpace=wrap;html=1;align=center;fillColor=#f5f5f5;fontColor=#333333;strokeColor=#666666;" parent="1" vertex="1">
          <mxGeometry x="1135" y="700" width="100" height="40" as="geometry" />
        </mxCell>
        <mxCell id="ln-KKI3XszUrnPwqGnD0-21" value="주소" style="ellipse;whiteSpace=wrap;html=1;align=center;fillColor=#f5f5f5;fontColor=#333333;strokeColor=#666666;" parent="1" vertex="1">
          <mxGeometry x="1355" y="700" width="100" height="40" as="geometry" />
        </mxCell>
        <mxCell id="ln-KKI3XszUrnPwqGnD0-23" value="전화번호" style="ellipse;whiteSpace=wrap;html=1;align=center;fillColor=#f5f5f5;fontColor=#333333;strokeColor=#666666;" parent="1" vertex="1">
          <mxGeometry x="1245" y="700" width="100" height="40" as="geometry" />
        </mxCell>
        <mxCell id="ln-KKI3XszUrnPwqGnD0-44" style="edgeStyle=orthogonalEdgeStyle;rounded=0;orthogonalLoop=1;jettySize=auto;html=1;exitX=0;exitY=0.5;exitDx=0;exitDy=0;" parent="1" source="ln-KKI3XszUrnPwqGnD0-35" target="ln-KKI3XszUrnPwqGnD0-41" edge="1">
          <mxGeometry relative="1" as="geometry" />
        </mxCell>
        <mxCell id="ln-KKI3XszUrnPwqGnD0-45" style="edgeStyle=orthogonalEdgeStyle;rounded=0;orthogonalLoop=1;jettySize=auto;html=1;" parent="1" source="ln-KKI3XszUrnPwqGnD0-35" target="ln-KKI3XszUrnPwqGnD0-42" edge="1">
          <mxGeometry relative="1" as="geometry">
            <Array as="points">
              <mxPoint x="922" y="410" />
              <mxPoint x="957" y="410" />
            </Array>
          </mxGeometry>
        </mxCell>
        <mxCell id="ln-KKI3XszUrnPwqGnD0-46" style="edgeStyle=orthogonalEdgeStyle;rounded=0;orthogonalLoop=1;jettySize=auto;html=1;" parent="1" source="ln-KKI3XszUrnPwqGnD0-35" target="ln-KKI3XszUrnPwqGnD0-43" edge="1">
          <mxGeometry relative="1" as="geometry" />
        </mxCell>
        <mxCell id="ln-KKI3XszUrnPwqGnD0-50" style="edgeStyle=orthogonalEdgeStyle;rounded=0;orthogonalLoop=1;jettySize=auto;html=1;" parent="1" source="ln-KKI3XszUrnPwqGnD0-35" target="ln-KKI3XszUrnPwqGnD0-49" edge="1">
          <mxGeometry relative="1" as="geometry" />
        </mxCell>
        <mxCell id="ln-KKI3XszUrnPwqGnD0-51" style="edgeStyle=orthogonalEdgeStyle;rounded=0;orthogonalLoop=1;jettySize=auto;html=1;exitX=0.5;exitY=1;exitDx=0;exitDy=0;" parent="1" source="ln-KKI3XszUrnPwqGnD0-35" target="ln-KKI3XszUrnPwqGnD0-47" edge="1">
          <mxGeometry relative="1" as="geometry" />
        </mxCell>
        <mxCell id="ln-KKI3XszUrnPwqGnD0-52" style="edgeStyle=orthogonalEdgeStyle;rounded=0;orthogonalLoop=1;jettySize=auto;html=1;exitX=1;exitY=0.5;exitDx=0;exitDy=0;" parent="1" source="ln-KKI3XszUrnPwqGnD0-35" target="ln-KKI3XszUrnPwqGnD0-48" edge="1">
          <mxGeometry relative="1" as="geometry" />
        </mxCell>
        <mxCell id="ln-KKI3XszUrnPwqGnD0-35" value="판매내역" style="shape=rhombus;perimeter=rhombusPerimeter;whiteSpace=wrap;html=1;align=center;fillColor=#f8cecc;strokeColor=#b85450;" parent="1" vertex="1">
          <mxGeometry x="862.5" y="300" width="120" height="60" as="geometry" />
        </mxCell>
        <mxCell id="ln-KKI3XszUrnPwqGnD0-39" value="" style="edgeStyle=orthogonalEdgeStyle;fontSize=12;html=1;endArrow=ERoneToMany;rounded=0;exitX=0.5;exitY=0;exitDx=0;exitDy=0;entryX=0.5;entryY=0;entryDx=0;entryDy=0;" parent="1" source="ln-KKI3XszUrnPwqGnD0-1" target="ln-KKI3XszUrnPwqGnD0-35" edge="1">
          <mxGeometry width="100" height="100" relative="1" as="geometry">
            <mxPoint x="630" y="800" as="sourcePoint" />
            <mxPoint x="730" y="700" as="targetPoint" />
          </mxGeometry>
        </mxCell>
        <mxCell id="ln-KKI3XszUrnPwqGnD0-40" value="" style="edgeStyle=orthogonalEdgeStyle;fontSize=12;html=1;endArrow=ERoneToMany;rounded=0;exitX=0.5;exitY=0;exitDx=0;exitDy=0;entryX=0.5;entryY=0;entryDx=0;entryDy=0;" parent="1" source="ln-KKI3XszUrnPwqGnD0-18" target="ln-KKI3XszUrnPwqGnD0-35" edge="1">
          <mxGeometry width="100" height="100" relative="1" as="geometry">
            <mxPoint x="597" y="810" as="sourcePoint" />
            <mxPoint x="872" y="340" as="targetPoint" />
          </mxGeometry>
        </mxCell>
        <mxCell id="ln-KKI3XszUrnPwqGnD0-41" value="거래일자" style="ellipse;whiteSpace=wrap;html=1;align=center;fillColor=#f5f5f5;fontColor=#333333;strokeColor=#666666;" parent="1" vertex="1">
          <mxGeometry x="777" y="510" width="100" height="40" as="geometry" />
        </mxCell>
        <mxCell id="ln-KKI3XszUrnPwqGnD0-42" value="거래시각" style="ellipse;whiteSpace=wrap;html=1;align=center;fillColor=#f5f5f5;fontColor=#333333;strokeColor=#666666;" parent="1" vertex="1">
          <mxGeometry x="907" y="510" width="100" height="40" as="geometry" />
        </mxCell>
        <mxCell id="ln-KKI3XszUrnPwqGnD0-43" value="수량" style="ellipse;whiteSpace=wrap;html=1;align=center;fillColor=#f5f5f5;fontColor=#333333;strokeColor=#666666;" parent="1" vertex="1">
          <mxGeometry x="1039.5" y="510" width="100" height="40" as="geometry" />
        </mxCell>
        <mxCell id="ln-KKI3XszUrnPwqGnD0-47" value="판매단가" style="ellipse;whiteSpace=wrap;html=1;align=center;fillColor=#f5f5f5;fontColor=#333333;strokeColor=#666666;" parent="1" vertex="1">
          <mxGeometry x="845.5" y="460" width="100" height="40" as="geometry" />
        </mxCell>
        <mxCell id="ln-KKI3XszUrnPwqGnD0-48" value="판매금액" style="ellipse;whiteSpace=wrap;html=1;align=center;fillColor=#f5f5f5;fontColor=#333333;strokeColor=#666666;" parent="1" vertex="1">
          <mxGeometry x="973" y="460" width="100" height="40" as="geometry" />
        </mxCell>
        <mxCell id="ln-KKI3XszUrnPwqGnD0-49" value="SEQ" style="ellipse;whiteSpace=wrap;html=1;align=center;fontStyle=4;fillColor=#dae8fc;strokeColor=#6c8ebf;" parent="1" vertex="1">
          <mxGeometry x="717" y="460" width="100" height="40" as="geometry" />
        </mxCell>
      </root>
    </mxGraphModel>
  </diagram>
</mxfile>
